<mxfile host="app.diagrams.net" modified="2023-05-05T01:20:47.264Z" agent="Mozilla/5.0 (Windows NT 10.0; Win64; x64) AppleWebKit/537.36 (KHTML, like Gecko) Chrome/113.0.0.0 Safari/537.36" etag="1HpG84FcTEw1gn2Eyqx8" version="21.2.9" type="device">
  <diagram name="PÃ¡gina-1" id="sYnCR80HuaWVFC99uwsC">
    <mxGraphModel dx="1682" dy="1620" grid="1" gridSize="10" guides="1" tooltips="1" connect="1" arrows="1" fold="1" page="1" pageScale="1" pageWidth="827" pageHeight="1169" math="0" shadow="0">
      <root>
        <mxCell id="0" />
        <mxCell id="1" parent="0" />
        <mxCell id="D0i6gASBKcLgmKZwCHCR-2" value="&lt;font style=&quot;vertical-align: inherit;&quot;&gt;&lt;font style=&quot;vertical-align: inherit;&quot;&gt;Es N mayor a 7&lt;/font&gt;&lt;/font&gt;" style="ellipse;whiteSpace=wrap;html=1;" vertex="1" parent="1">
          <mxGeometry x="249.75" y="-1160" width="180" height="80" as="geometry" />
        </mxCell>
        <mxCell id="D0i6gASBKcLgmKZwCHCR-3" value="" style="endArrow=classic;html=1;rounded=0;exitX=0.5;exitY=1;exitDx=0;exitDy=0;entryX=0.5;entryY=0;entryDx=0;entryDy=0;" edge="1" parent="1" source="D0i6gASBKcLgmKZwCHCR-2" target="D0i6gASBKcLgmKZwCHCR-4">
          <mxGeometry width="50" height="50" relative="1" as="geometry">
            <mxPoint x="519.75" y="-990" as="sourcePoint" />
            <mxPoint x="339.75" y="-1020" as="targetPoint" />
          </mxGeometry>
        </mxCell>
        <mxCell id="D0i6gASBKcLgmKZwCHCR-4" value="&lt;font style=&quot;vertical-align: inherit;&quot;&gt;&lt;font style=&quot;vertical-align: inherit;&quot;&gt;N = 45&lt;/font&gt;&lt;/font&gt;" style="shape=parallelogram;perimeter=parallelogramPerimeter;whiteSpace=wrap;html=1;fixedSize=1;" vertex="1" parent="1">
          <mxGeometry x="279.75" y="-1010" width="120" height="60" as="geometry" />
        </mxCell>
        <mxCell id="D0i6gASBKcLgmKZwCHCR-6" value="" style="endArrow=classic;html=1;rounded=0;exitX=0.5;exitY=1;exitDx=0;exitDy=0;entryX=0.5;entryY=0;entryDx=0;entryDy=0;" edge="1" parent="1" target="D0i6gASBKcLgmKZwCHCR-7">
          <mxGeometry width="50" height="50" relative="1" as="geometry">
            <mxPoint x="339.25" y="-950" as="sourcePoint" />
            <mxPoint x="339.25" y="-880" as="targetPoint" />
          </mxGeometry>
        </mxCell>
        <mxCell id="D0i6gASBKcLgmKZwCHCR-7" value="&lt;font style=&quot;vertical-align: inherit;&quot;&gt;&lt;font style=&quot;vertical-align: inherit;&quot;&gt;&lt;font style=&quot;vertical-align: inherit;&quot;&gt;&lt;font style=&quot;vertical-align: inherit;&quot;&gt;n == 7&lt;/font&gt;&lt;/font&gt;&lt;/font&gt;&lt;/font&gt;" style="rhombus;whiteSpace=wrap;html=1;" vertex="1" parent="1">
          <mxGeometry x="299.25" y="-920" width="80" height="80" as="geometry" />
        </mxCell>
        <mxCell id="D0i6gASBKcLgmKZwCHCR-10" value="&lt;font style=&quot;vertical-align: inherit;&quot;&gt;&lt;font style=&quot;vertical-align: inherit;&quot;&gt;N es igual&lt;/font&gt;&lt;/font&gt;" style="shape=document;whiteSpace=wrap;html=1;boundedLbl=1;" vertex="1" parent="1">
          <mxGeometry x="520" y="-802" width="120" height="80" as="geometry" />
        </mxCell>
        <mxCell id="D0i6gASBKcLgmKZwCHCR-11" value="" style="endArrow=classic;html=1;rounded=0;entryX=0.5;entryY=0;entryDx=0;entryDy=0;" edge="1" parent="1" target="D0i6gASBKcLgmKZwCHCR-10">
          <mxGeometry width="50" height="50" relative="1" as="geometry">
            <mxPoint x="379.75" y="-880" as="sourcePoint" />
            <mxPoint x="439.25" y="-820" as="targetPoint" />
            <Array as="points">
              <mxPoint x="580" y="-880" />
            </Array>
          </mxGeometry>
        </mxCell>
        <mxCell id="D0i6gASBKcLgmKZwCHCR-12" value="" style="endArrow=classic;html=1;rounded=0;exitX=0;exitY=0.5;exitDx=0;exitDy=0;entryX=0.5;entryY=0;entryDx=0;entryDy=0;" edge="1" parent="1" source="D0i6gASBKcLgmKZwCHCR-7" target="D0i6gASBKcLgmKZwCHCR-14">
          <mxGeometry width="50" height="50" relative="1" as="geometry">
            <mxPoint x="519.75" y="-990" as="sourcePoint" />
            <mxPoint x="239.25" y="-820" as="targetPoint" />
            <Array as="points">
              <mxPoint x="130" y="-880" />
            </Array>
          </mxGeometry>
        </mxCell>
        <mxCell id="D0i6gASBKcLgmKZwCHCR-13" value="&lt;font style=&quot;vertical-align: inherit;&quot;&gt;&lt;font style=&quot;vertical-align: inherit;&quot;&gt;&lt;font style=&quot;vertical-align: inherit;&quot;&gt;&lt;font style=&quot;vertical-align: inherit;&quot;&gt;NO&lt;/font&gt;&lt;/font&gt;&lt;/font&gt;&lt;/font&gt;" style="text;html=1;align=center;verticalAlign=middle;resizable=0;points=[];autosize=1;strokeColor=none;fillColor=none;" vertex="1" parent="1">
          <mxGeometry x="249.75" y="-912" width="40" height="30" as="geometry" />
        </mxCell>
        <mxCell id="D0i6gASBKcLgmKZwCHCR-14" value="&lt;font style=&quot;vertical-align: inherit;&quot;&gt;&lt;font style=&quot;vertical-align: inherit;&quot;&gt;N&amp;gt;7&lt;/font&gt;&lt;/font&gt;" style="rhombus;whiteSpace=wrap;html=1;" vertex="1" parent="1">
          <mxGeometry x="89.75" y="-840" width="80" height="80" as="geometry" />
        </mxCell>
        <mxCell id="D0i6gASBKcLgmKZwCHCR-15" value="&lt;font style=&quot;vertical-align: inherit;&quot;&gt;&lt;font style=&quot;vertical-align: inherit;&quot;&gt;N es menor&lt;/font&gt;&lt;/font&gt;" style="shape=document;whiteSpace=wrap;html=1;boundedLbl=1;" vertex="1" parent="1">
          <mxGeometry x="-30.25" y="-740" width="120" height="80" as="geometry" />
        </mxCell>
        <mxCell id="D0i6gASBKcLgmKZwCHCR-16" value="&lt;font style=&quot;vertical-align: inherit;&quot;&gt;&lt;font style=&quot;vertical-align: inherit;&quot;&gt;N es mayor&lt;/font&gt;&lt;/font&gt;" style="shape=document;whiteSpace=wrap;html=1;boundedLbl=1;" vertex="1" parent="1">
          <mxGeometry x="169.75" y="-740" width="120" height="80" as="geometry" />
        </mxCell>
        <mxCell id="D0i6gASBKcLgmKZwCHCR-17" value="" style="endArrow=classic;html=1;rounded=0;entryX=0.5;entryY=0;entryDx=0;entryDy=0;" edge="1" parent="1">
          <mxGeometry width="50" height="50" relative="1" as="geometry">
            <mxPoint x="170.25" y="-800" as="sourcePoint" />
            <mxPoint x="229.75" y="-740" as="targetPoint" />
            <Array as="points">
              <mxPoint x="230.25" y="-800" />
            </Array>
          </mxGeometry>
        </mxCell>
        <mxCell id="D0i6gASBKcLgmKZwCHCR-18" value="" style="endArrow=classic;html=1;rounded=0;exitX=0;exitY=0.5;exitDx=0;exitDy=0;entryX=0.5;entryY=0;entryDx=0;entryDy=0;" edge="1" parent="1" source="D0i6gASBKcLgmKZwCHCR-14" target="D0i6gASBKcLgmKZwCHCR-15">
          <mxGeometry width="50" height="50" relative="1" as="geometry">
            <mxPoint x="310.25" y="-910" as="sourcePoint" />
            <mxPoint x="360.25" y="-960" as="targetPoint" />
            <Array as="points">
              <mxPoint x="30.25" y="-800" />
            </Array>
          </mxGeometry>
        </mxCell>
        <mxCell id="D0i6gASBKcLgmKZwCHCR-19" value="&lt;font style=&quot;vertical-align: inherit;&quot;&gt;&lt;font style=&quot;vertical-align: inherit;&quot;&gt;No&lt;/font&gt;&lt;/font&gt;" style="text;html=1;align=center;verticalAlign=middle;resizable=0;points=[];autosize=1;strokeColor=none;fillColor=none;" vertex="1" parent="1">
          <mxGeometry x="40.25" y="-832" width="40" height="30" as="geometry" />
        </mxCell>
        <mxCell id="D0i6gASBKcLgmKZwCHCR-20" value="&lt;font style=&quot;vertical-align: inherit;&quot;&gt;&lt;font style=&quot;vertical-align: inherit;&quot;&gt;SI&lt;/font&gt;&lt;/font&gt;" style="text;html=1;align=center;verticalAlign=middle;resizable=0;points=[];autosize=1;strokeColor=none;fillColor=none;" vertex="1" parent="1">
          <mxGeometry x="385" y="-912" width="30" height="30" as="geometry" />
        </mxCell>
        <mxCell id="D0i6gASBKcLgmKZwCHCR-21" value="&lt;font style=&quot;vertical-align: inherit;&quot;&gt;&lt;font style=&quot;vertical-align: inherit;&quot;&gt;Si&lt;/font&gt;&lt;/font&gt;" style="text;html=1;align=center;verticalAlign=middle;resizable=0;points=[];autosize=1;strokeColor=none;fillColor=none;" vertex="1" parent="1">
          <mxGeometry x="175" y="-832" width="30" height="30" as="geometry" />
        </mxCell>
        <mxCell id="D0i6gASBKcLgmKZwCHCR-22" value="" style="endArrow=none;html=1;rounded=0;exitX=0.544;exitY=0.83;exitDx=0;exitDy=0;exitPerimeter=0;entryX=0.537;entryY=0.82;entryDx=0;entryDy=0;entryPerimeter=0;" edge="1" parent="1" source="D0i6gASBKcLgmKZwCHCR-15" target="D0i6gASBKcLgmKZwCHCR-16">
          <mxGeometry width="50" height="50" relative="1" as="geometry">
            <mxPoint x="390" y="-610" as="sourcePoint" />
            <mxPoint x="440" y="-660" as="targetPoint" />
            <Array as="points">
              <mxPoint x="35" y="-600" />
              <mxPoint x="100" y="-600" />
              <mxPoint x="130" y="-600" />
              <mxPoint x="234" y="-600" />
            </Array>
          </mxGeometry>
        </mxCell>
        <mxCell id="D0i6gASBKcLgmKZwCHCR-23" value="" style="endArrow=classic;html=1;rounded=0;exitX=0.571;exitY=0.77;exitDx=0;exitDy=0;exitPerimeter=0;" edge="1" parent="1" source="D0i6gASBKcLgmKZwCHCR-10">
          <mxGeometry width="50" height="50" relative="1" as="geometry">
            <mxPoint x="390" y="-610" as="sourcePoint" />
            <mxPoint x="590" y="-560" as="targetPoint" />
          </mxGeometry>
        </mxCell>
        <mxCell id="D0i6gASBKcLgmKZwCHCR-24" value="" style="endArrow=none;html=1;rounded=0;" edge="1" parent="1">
          <mxGeometry width="50" height="50" relative="1" as="geometry">
            <mxPoint x="120" y="-560" as="sourcePoint" />
            <mxPoint x="590" y="-560" as="targetPoint" />
          </mxGeometry>
        </mxCell>
        <mxCell id="D0i6gASBKcLgmKZwCHCR-25" value="" style="endArrow=classic;html=1;rounded=0;" edge="1" parent="1">
          <mxGeometry width="50" height="50" relative="1" as="geometry">
            <mxPoint x="120" y="-600" as="sourcePoint" />
            <mxPoint x="120" y="-560" as="targetPoint" />
          </mxGeometry>
        </mxCell>
        <mxCell id="D0i6gASBKcLgmKZwCHCR-26" value="" style="endArrow=classic;html=1;rounded=0;" edge="1" parent="1">
          <mxGeometry width="50" height="50" relative="1" as="geometry">
            <mxPoint x="290" y="-560" as="sourcePoint" />
            <mxPoint x="290" y="-530" as="targetPoint" />
          </mxGeometry>
        </mxCell>
        <mxCell id="D0i6gASBKcLgmKZwCHCR-27" value="&lt;font style=&quot;vertical-align: inherit;&quot;&gt;&lt;font style=&quot;vertical-align: inherit;&quot;&gt;Fin&lt;/font&gt;&lt;/font&gt;" style="ellipse;whiteSpace=wrap;html=1;" vertex="1" parent="1">
          <mxGeometry x="220" y="-530" width="140" height="80" as="geometry" />
        </mxCell>
        <mxCell id="D0i6gASBKcLgmKZwCHCR-28" value="&lt;font style=&quot;vertical-align: inherit;&quot;&gt;&lt;font style=&quot;vertical-align: inherit;&quot;&gt;&lt;font style=&quot;vertical-align: inherit;&quot;&gt;&lt;font style=&quot;vertical-align: inherit;&quot;&gt;A Y B, cual es menor?&lt;/font&gt;&lt;/font&gt;&lt;/font&gt;&lt;/font&gt;" style="ellipse;whiteSpace=wrap;html=1;" vertex="1" parent="1">
          <mxGeometry x="940" y="-1115" width="180" height="80" as="geometry" />
        </mxCell>
        <mxCell id="D0i6gASBKcLgmKZwCHCR-29" value="" style="endArrow=classic;html=1;rounded=0;exitX=0.5;exitY=1;exitDx=0;exitDy=0;entryX=0.5;entryY=0;entryDx=0;entryDy=0;" edge="1" parent="1" source="D0i6gASBKcLgmKZwCHCR-28" target="D0i6gASBKcLgmKZwCHCR-30">
          <mxGeometry width="50" height="50" relative="1" as="geometry">
            <mxPoint x="1210" y="-945" as="sourcePoint" />
            <mxPoint x="1030" y="-975" as="targetPoint" />
          </mxGeometry>
        </mxCell>
        <mxCell id="D0i6gASBKcLgmKZwCHCR-30" value="&lt;font style=&quot;vertical-align: inherit;&quot;&gt;&lt;font style=&quot;vertical-align: inherit;&quot;&gt;&lt;font style=&quot;vertical-align: inherit;&quot;&gt;&lt;font style=&quot;vertical-align: inherit;&quot;&gt;A = 8, B = 5&lt;/font&gt;&lt;/font&gt;&lt;/font&gt;&lt;/font&gt;" style="shape=parallelogram;perimeter=parallelogramPerimeter;whiteSpace=wrap;html=1;fixedSize=1;" vertex="1" parent="1">
          <mxGeometry x="970" y="-965" width="120" height="60" as="geometry" />
        </mxCell>
        <mxCell id="D0i6gASBKcLgmKZwCHCR-31" value="" style="endArrow=classic;html=1;rounded=0;exitX=0.5;exitY=1;exitDx=0;exitDy=0;entryX=0.5;entryY=0;entryDx=0;entryDy=0;" edge="1" parent="1" target="D0i6gASBKcLgmKZwCHCR-32">
          <mxGeometry width="50" height="50" relative="1" as="geometry">
            <mxPoint x="1029.5" y="-905" as="sourcePoint" />
            <mxPoint x="1029.5" y="-835" as="targetPoint" />
          </mxGeometry>
        </mxCell>
        <mxCell id="D0i6gASBKcLgmKZwCHCR-32" value="&lt;font style=&quot;vertical-align: inherit;&quot;&gt;&lt;font style=&quot;vertical-align: inherit;&quot;&gt;&lt;font style=&quot;vertical-align: inherit;&quot;&gt;&lt;font style=&quot;vertical-align: inherit;&quot;&gt;&lt;font style=&quot;vertical-align: inherit;&quot;&gt;&lt;font style=&quot;vertical-align: inherit;&quot;&gt;A &amp;gt; B&lt;/font&gt;&lt;/font&gt;&lt;/font&gt;&lt;/font&gt;&lt;/font&gt;&lt;/font&gt;" style="rhombus;whiteSpace=wrap;html=1;" vertex="1" parent="1">
          <mxGeometry x="989.5" y="-875" width="80" height="80" as="geometry" />
        </mxCell>
        <mxCell id="D0i6gASBKcLgmKZwCHCR-33" value="&lt;font style=&quot;vertical-align: inherit;&quot;&gt;&lt;font style=&quot;vertical-align: inherit;&quot;&gt;B es menor&lt;/font&gt;&lt;/font&gt;" style="shape=document;whiteSpace=wrap;html=1;boundedLbl=1;" vertex="1" parent="1">
          <mxGeometry x="1210.25" y="-795" width="120" height="73" as="geometry" />
        </mxCell>
        <mxCell id="D0i6gASBKcLgmKZwCHCR-34" value="" style="endArrow=classic;html=1;rounded=0;entryX=0.5;entryY=0;entryDx=0;entryDy=0;" edge="1" parent="1" target="D0i6gASBKcLgmKZwCHCR-33">
          <mxGeometry width="50" height="50" relative="1" as="geometry">
            <mxPoint x="1070" y="-835" as="sourcePoint" />
            <mxPoint x="1129.5" y="-775" as="targetPoint" />
            <Array as="points">
              <mxPoint x="1270.25" y="-835" />
            </Array>
          </mxGeometry>
        </mxCell>
        <mxCell id="D0i6gASBKcLgmKZwCHCR-35" value="" style="endArrow=classic;html=1;rounded=0;exitX=0;exitY=0.5;exitDx=0;exitDy=0;entryX=0.5;entryY=0;entryDx=0;entryDy=0;" edge="1" parent="1" source="D0i6gASBKcLgmKZwCHCR-32">
          <mxGeometry width="50" height="50" relative="1" as="geometry">
            <mxPoint x="1210" y="-945" as="sourcePoint" />
            <mxPoint x="819.9999999999995" y="-795" as="targetPoint" />
            <Array as="points">
              <mxPoint x="820.25" y="-835" />
            </Array>
          </mxGeometry>
        </mxCell>
        <mxCell id="D0i6gASBKcLgmKZwCHCR-36" value="&lt;font style=&quot;vertical-align: inherit;&quot;&gt;&lt;font style=&quot;vertical-align: inherit;&quot;&gt;&lt;font style=&quot;vertical-align: inherit;&quot;&gt;&lt;font style=&quot;vertical-align: inherit;&quot;&gt;NO&lt;/font&gt;&lt;/font&gt;&lt;/font&gt;&lt;/font&gt;" style="text;html=1;align=center;verticalAlign=middle;resizable=0;points=[];autosize=1;strokeColor=none;fillColor=none;" vertex="1" parent="1">
          <mxGeometry x="940" y="-867" width="40" height="30" as="geometry" />
        </mxCell>
        <mxCell id="D0i6gASBKcLgmKZwCHCR-38" value="&lt;font style=&quot;vertical-align: inherit;&quot;&gt;&lt;font style=&quot;vertical-align: inherit;&quot;&gt;&lt;font style=&quot;vertical-align: inherit;&quot;&gt;&lt;font style=&quot;vertical-align: inherit;&quot;&gt;A es menor&lt;/font&gt;&lt;/font&gt;&lt;/font&gt;&lt;/font&gt;" style="shape=document;whiteSpace=wrap;html=1;boundedLbl=1;" vertex="1" parent="1">
          <mxGeometry x="760" y="-795" width="120" height="80" as="geometry" />
        </mxCell>
        <mxCell id="D0i6gASBKcLgmKZwCHCR-43" value="&lt;font style=&quot;vertical-align: inherit;&quot;&gt;&lt;font style=&quot;vertical-align: inherit;&quot;&gt;SI&lt;/font&gt;&lt;/font&gt;" style="text;html=1;align=center;verticalAlign=middle;resizable=0;points=[];autosize=1;strokeColor=none;fillColor=none;" vertex="1" parent="1">
          <mxGeometry x="1075.25" y="-867" width="30" height="30" as="geometry" />
        </mxCell>
        <mxCell id="D0i6gASBKcLgmKZwCHCR-46" value="" style="endArrow=classic;html=1;rounded=0;exitX=0.571;exitY=0.77;exitDx=0;exitDy=0;exitPerimeter=0;" edge="1" parent="1" source="D0i6gASBKcLgmKZwCHCR-33">
          <mxGeometry width="50" height="50" relative="1" as="geometry">
            <mxPoint x="1080.25" y="-565" as="sourcePoint" />
            <mxPoint x="1280" y="-680" as="targetPoint" />
          </mxGeometry>
        </mxCell>
        <mxCell id="D0i6gASBKcLgmKZwCHCR-47" value="" style="endArrow=none;html=1;rounded=0;" edge="1" parent="1">
          <mxGeometry width="50" height="50" relative="1" as="geometry">
            <mxPoint x="830" y="-680" as="sourcePoint" />
            <mxPoint x="1280" y="-680" as="targetPoint" />
          </mxGeometry>
        </mxCell>
        <mxCell id="D0i6gASBKcLgmKZwCHCR-48" value="" style="endArrow=classic;html=1;rounded=0;" edge="1" parent="1">
          <mxGeometry width="50" height="50" relative="1" as="geometry">
            <mxPoint x="826" y="-730" as="sourcePoint" />
            <mxPoint x="826" y="-680" as="targetPoint" />
          </mxGeometry>
        </mxCell>
        <mxCell id="D0i6gASBKcLgmKZwCHCR-49" value="" style="endArrow=classic;html=1;rounded=0;" edge="1" parent="1">
          <mxGeometry width="50" height="50" relative="1" as="geometry">
            <mxPoint x="1100" y="-690" as="sourcePoint" />
            <mxPoint x="1100" y="-660" as="targetPoint" />
          </mxGeometry>
        </mxCell>
        <mxCell id="D0i6gASBKcLgmKZwCHCR-73" value="&lt;font style=&quot;vertical-align: inherit;&quot;&gt;&lt;font style=&quot;vertical-align: inherit;&quot;&gt;N dentro del rango 7 y 15&lt;/font&gt;&lt;/font&gt;" style="ellipse;whiteSpace=wrap;html=1;" vertex="1" parent="1">
          <mxGeometry x="310" y="-290" width="180" height="80" as="geometry" />
        </mxCell>
        <mxCell id="D0i6gASBKcLgmKZwCHCR-74" value="" style="endArrow=classic;html=1;rounded=0;exitX=0.5;exitY=1;exitDx=0;exitDy=0;entryX=0.5;entryY=0;entryDx=0;entryDy=0;" edge="1" parent="1" source="D0i6gASBKcLgmKZwCHCR-73" target="D0i6gASBKcLgmKZwCHCR-75">
          <mxGeometry width="50" height="50" relative="1" as="geometry">
            <mxPoint x="580" y="-120" as="sourcePoint" />
            <mxPoint x="400" y="-150" as="targetPoint" />
          </mxGeometry>
        </mxCell>
        <mxCell id="D0i6gASBKcLgmKZwCHCR-75" value="N = 9" style="shape=parallelogram;perimeter=parallelogramPerimeter;whiteSpace=wrap;html=1;fixedSize=1;" vertex="1" parent="1">
          <mxGeometry x="340" y="-140" width="120" height="60" as="geometry" />
        </mxCell>
        <mxCell id="D0i6gASBKcLgmKZwCHCR-76" value="" style="endArrow=classic;html=1;rounded=0;exitX=0.5;exitY=1;exitDx=0;exitDy=0;entryX=0.5;entryY=0;entryDx=0;entryDy=0;" edge="1" parent="1" target="D0i6gASBKcLgmKZwCHCR-77">
          <mxGeometry width="50" height="50" relative="1" as="geometry">
            <mxPoint x="399.5" y="-80" as="sourcePoint" />
            <mxPoint x="399.5" y="-10" as="targetPoint" />
          </mxGeometry>
        </mxCell>
        <mxCell id="D0i6gASBKcLgmKZwCHCR-77" value="&lt;font style=&quot;vertical-align: inherit;&quot;&gt;&lt;font style=&quot;vertical-align: inherit;&quot;&gt;&lt;font style=&quot;vertical-align: inherit;&quot;&gt;&lt;font style=&quot;vertical-align: inherit;&quot;&gt;7 &amp;gt; N &amp;amp;&amp;amp; N &amp;lt; 15&lt;/font&gt;&lt;/font&gt;&lt;/font&gt;&lt;/font&gt;" style="rhombus;whiteSpace=wrap;html=1;" vertex="1" parent="1">
          <mxGeometry x="344.75" y="-62" width="110.5" height="100" as="geometry" />
        </mxCell>
        <mxCell id="D0i6gASBKcLgmKZwCHCR-78" value="&lt;font style=&quot;vertical-align: inherit;&quot;&gt;&lt;font style=&quot;vertical-align: inherit;&quot;&gt;N esta dentro del rango&lt;/font&gt;&lt;/font&gt;" style="shape=document;whiteSpace=wrap;html=1;boundedLbl=1;" vertex="1" parent="1">
          <mxGeometry x="580.25" y="20" width="120" height="80" as="geometry" />
        </mxCell>
        <mxCell id="D0i6gASBKcLgmKZwCHCR-79" value="" style="endArrow=classic;html=1;rounded=0;entryX=0.5;entryY=0;entryDx=0;entryDy=0;exitX=0.291;exitY=0.989;exitDx=0;exitDy=0;exitPerimeter=0;" edge="1" parent="1" target="D0i6gASBKcLgmKZwCHCR-78" source="D0i6gASBKcLgmKZwCHCR-88">
          <mxGeometry width="50" height="50" relative="1" as="geometry">
            <mxPoint x="440" y="-10" as="sourcePoint" />
            <mxPoint x="499.5" y="50" as="targetPoint" />
            <Array as="points">
              <mxPoint x="640.25" y="-10" />
            </Array>
          </mxGeometry>
        </mxCell>
        <mxCell id="D0i6gASBKcLgmKZwCHCR-80" value="" style="endArrow=classic;html=1;rounded=0;exitX=0;exitY=0.5;exitDx=0;exitDy=0;entryX=0.5;entryY=0;entryDx=0;entryDy=0;" edge="1" parent="1" source="D0i6gASBKcLgmKZwCHCR-77">
          <mxGeometry width="50" height="50" relative="1" as="geometry">
            <mxPoint x="580" y="-120" as="sourcePoint" />
            <mxPoint x="190.00000000000023" y="30" as="targetPoint" />
            <Array as="points">
              <mxPoint x="190.25" y="-10" />
            </Array>
          </mxGeometry>
        </mxCell>
        <mxCell id="D0i6gASBKcLgmKZwCHCR-81" value="&lt;font style=&quot;vertical-align: inherit;&quot;&gt;&lt;font style=&quot;vertical-align: inherit;&quot;&gt;&lt;font style=&quot;vertical-align: inherit;&quot;&gt;&lt;font style=&quot;vertical-align: inherit;&quot;&gt;NO&lt;/font&gt;&lt;/font&gt;&lt;/font&gt;&lt;/font&gt;" style="text;html=1;align=center;verticalAlign=middle;resizable=0;points=[];autosize=1;strokeColor=none;fillColor=none;" vertex="1" parent="1">
          <mxGeometry x="310" y="-42" width="40" height="30" as="geometry" />
        </mxCell>
        <mxCell id="D0i6gASBKcLgmKZwCHCR-83" value="&lt;font style=&quot;vertical-align: inherit;&quot;&gt;&lt;font style=&quot;vertical-align: inherit;&quot;&gt;N esta fuera del rango&lt;/font&gt;&lt;/font&gt;" style="shape=document;whiteSpace=wrap;html=1;boundedLbl=1;" vertex="1" parent="1">
          <mxGeometry x="130" y="20" width="120" height="80" as="geometry" />
        </mxCell>
        <mxCell id="D0i6gASBKcLgmKZwCHCR-88" value="&lt;font style=&quot;vertical-align: inherit;&quot;&gt;&lt;font style=&quot;vertical-align: inherit;&quot;&gt;SI&lt;/font&gt;&lt;/font&gt;" style="text;html=1;align=center;verticalAlign=middle;resizable=0;points=[];autosize=1;strokeColor=none;fillColor=none;" vertex="1" parent="1">
          <mxGeometry x="445.25" y="-42" width="30" height="30" as="geometry" />
        </mxCell>
        <mxCell id="D0i6gASBKcLgmKZwCHCR-91" value="" style="endArrow=classic;html=1;rounded=0;exitX=0.571;exitY=0.77;exitDx=0;exitDy=0;exitPerimeter=0;" edge="1" parent="1" source="D0i6gASBKcLgmKZwCHCR-78">
          <mxGeometry width="50" height="50" relative="1" as="geometry">
            <mxPoint x="450.25" y="260" as="sourcePoint" />
            <mxPoint x="650" y="140" as="targetPoint" />
          </mxGeometry>
        </mxCell>
        <mxCell id="D0i6gASBKcLgmKZwCHCR-92" value="" style="endArrow=none;html=1;rounded=0;" edge="1" parent="1">
          <mxGeometry width="50" height="50" relative="1" as="geometry">
            <mxPoint x="179" y="140" as="sourcePoint" />
            <mxPoint x="649" y="140" as="targetPoint" />
          </mxGeometry>
        </mxCell>
        <mxCell id="D0i6gASBKcLgmKZwCHCR-93" value="" style="endArrow=classic;html=1;rounded=0;exitX=0.451;exitY=0.946;exitDx=0;exitDy=0;exitPerimeter=0;" edge="1" parent="1" source="D0i6gASBKcLgmKZwCHCR-83">
          <mxGeometry width="50" height="50" relative="1" as="geometry">
            <mxPoint x="180.25" y="270" as="sourcePoint" />
            <mxPoint x="184" y="140" as="targetPoint" />
          </mxGeometry>
        </mxCell>
        <mxCell id="D0i6gASBKcLgmKZwCHCR-94" value="" style="endArrow=classic;html=1;rounded=0;" edge="1" parent="1">
          <mxGeometry width="50" height="50" relative="1" as="geometry">
            <mxPoint x="400" y="140" as="sourcePoint" />
            <mxPoint x="400" y="170" as="targetPoint" />
          </mxGeometry>
        </mxCell>
        <mxCell id="D0i6gASBKcLgmKZwCHCR-95" value="&lt;font style=&quot;vertical-align: inherit;&quot;&gt;&lt;font style=&quot;vertical-align: inherit;&quot;&gt;Fin&lt;/font&gt;&lt;/font&gt;" style="ellipse;whiteSpace=wrap;html=1;" vertex="1" parent="1">
          <mxGeometry x="335" y="170" width="130" height="40" as="geometry" />
        </mxCell>
        <mxCell id="D0i6gASBKcLgmKZwCHCR-96" value="&lt;font style=&quot;vertical-align: inherit;&quot;&gt;&lt;font style=&quot;vertical-align: inherit;&quot;&gt;Fin&lt;/font&gt;&lt;/font&gt;" style="ellipse;whiteSpace=wrap;html=1;" vertex="1" parent="1">
          <mxGeometry x="1030" y="-660" width="140" height="80" as="geometry" />
        </mxCell>
      </root>
    </mxGraphModel>
  </diagram>
</mxfile>
